<svg xmlns="http://www.w3.org/2000/svg" viewBox="0 0 64 64" role="img" aria-label="ChatGram favicon">
  <defs>
    <linearGradient id="bg" x1="10" y1="10" x2="54" y2="54" gradientUnits="userSpaceOnUse">
      <stop offset="0" stop-color="#ff8bb1"/>
      <stop offset="0.55" stop-color="#e94c93"/>
      <stop offset="1" stop-color="#c21b75"/>
    </linearGradient>
  </defs>
  <circle cx="32" cy="32" r="30" fill="url(#bg)"/>
  <path d="M41.5 33.9c-1.4 6-7.1 10.6-13.8 10.6-1.7 0-3.4-.2-4.9-.7L14.9 46l2.4-7.2c-1.6-2.2-2.5-4.8-2.5-7.6 0-7.8 7.2-14.1 16.1-14.1s16.1 6.3 16.1 14.1c0 1-.1 1.9-.3 2.8" fill="none" stroke="#fff" stroke-width="3.3" stroke-linecap="round" stroke-linejoin="round"/>
  <path d="M22 30.5 40 22 31.4 39.8l-3.8-7.1-5.6-2.2Z" fill="#fff" stroke="#fff" stroke-linejoin="round"/>
  <path d="m31.4 39.8 8.6-17.8-10.3 10.6" fill="none" stroke="#fff" stroke-width="2.8" stroke-linecap="round" stroke-linejoin="round"/>
</svg>
