<svg width="1200" height="800" viewBox="0 0 1200 800" fill="none" xmlns="http://www.w3.org/2000/svg">
  <defs>
    <linearGradient id="desk" x1="0" y1="0" x2="1200" y2="800" gradientUnits="userSpaceOnUse">
      <stop stop-color="#1E293B"/>
      <stop offset="0.5" stop-color="#334155"/>
      <stop offset="1" stop-color="#0F172A"/>
    </linearGradient>
    <linearGradient id="screen" x1="280" y1="190" x2="900" y2="620" gradientUnits="userSpaceOnUse">
      <stop stop-color="#38BDF8"/>
      <stop offset="1" stop-color="#A855F7"/>
    </linearGradient>
  </defs>
  <rect width="1200" height="800" rx="48" fill="url(#desk)"/>
  <circle cx="270" cy="184" r="120" fill="#FDE68A" fill-opacity="0.92"/>
  <circle cx="1010" cy="160" r="192" fill="#22C55E" fill-opacity="0.14"/>
  <rect x="104" y="120" width="992" height="560" rx="36" fill="#0B1220" fill-opacity="0.86" stroke="#475569" stroke-width="4"/>
  <rect x="168" y="176" width="864" height="396" rx="28" fill="#0F172A" stroke="#334155" stroke-width="4"/>
  <rect x="206" y="212" width="788" height="320" rx="22" fill="url(#screen)" fill-opacity="0.85"/>
  <circle cx="474" cy="350" r="92" fill="#F8FAFC" fill-opacity="0.2"/>
  <circle cx="732" cy="332" r="72" fill="#FDE047" fill-opacity="0.68"/>
  <path d="M244 510C382 448 494 432 600 446C706 462 800 520 922 522V548H244V510Z" fill="#F8FAFC" fill-opacity="0.18"/>
  <path d="M244 548C370 520 488 526 612 552C736 578 830 632 922 634V652H244V548Z" fill="#60A5FA" fill-opacity="0.28"/>
  <rect x="224" y="584" width="748" height="28" rx="14" fill="#E2E8F0" fill-opacity="0.14"/>
  <rect x="272" y="628" width="520" height="24" rx="12" fill="#E2E8F0" fill-opacity="0.1"/>
  <rect x="806" y="564" width="98" height="78" rx="18" fill="#22C55E" fill-opacity="0.42"/>
</svg>
