<svg width="1200" height="800" viewBox="0 0 1200 800" fill="none" xmlns="http://www.w3.org/2000/svg">
  <defs>
    <linearGradient id="sky" x1="0" y1="0" x2="0" y2="800" gradientUnits="userSpaceOnUse">
      <stop stop-color="#F7C873"/>
      <stop offset="0.42" stop-color="#F59E0B"/>
      <stop offset="1" stop-color="#1E293B"/>
    </linearGradient>
    <linearGradient id="windowGlow" x1="150" y1="130" x2="1060" y2="690" gradientUnits="userSpaceOnUse">
      <stop stop-color="#FFE8B5" stop-opacity="0.95"/>
      <stop offset="1" stop-color="#94A3B8" stop-opacity="0.2"/>
    </linearGradient>
  </defs>
  <rect width="1200" height="800" rx="48" fill="url(#sky)"/>
  <circle cx="260" cy="180" r="138" fill="#FFF7ED" fill-opacity="0.92"/>
  <rect x="94" y="118" width="1012" height="540" rx="34" fill="url(#windowGlow)" fill-opacity="0.55" stroke="#FFF7ED" stroke-opacity="0.24"/>
  <rect x="118" y="142" width="964" height="492" rx="28" fill="#0F172A" fill-opacity="0.22"/>
  <rect x="138" y="164" width="924" height="328" rx="24" fill="#111827" fill-opacity="0.16"/>
  <path d="M138 438C258 362 366 332 496 350C646 372 726 454 866 462C962 467 1030 446 1062 430V492H138V438Z" fill="#0EA5E9" fill-opacity="0.42"/>
  <path d="M138 474C258 414 370 406 494 430C642 458 736 542 876 536C968 532 1036 508 1062 494V586H138V474Z" fill="#10B981" fill-opacity="0.35"/>
  <path d="M148 546C292 510 418 512 548 548C676 584 774 626 916 618C994 614 1036 602 1062 592V650H148V546Z" fill="#1D4ED8" fill-opacity="0.4"/>
  <path d="M138 274H1062" stroke="#F8FAFC" stroke-opacity="0.18" stroke-width="8"/>
  <path d="M392 164V490" stroke="#F8FAFC" stroke-opacity="0.14" stroke-width="8"/>
  <path d="M808 164V490" stroke="#F8FAFC" stroke-opacity="0.14" stroke-width="8"/>
  <rect x="252" y="522" width="712" height="54" rx="27" fill="#F8FAFC" fill-opacity="0.18"/>
  <rect x="318" y="592" width="500" height="32" rx="16" fill="#F8FAFC" fill-opacity="0.12"/>
  <circle cx="930" cy="214" r="58" fill="#FDE68A" fill-opacity="0.45"/>
</svg>
